<?xml version="1.0" encoding="UTF-8"?>
<!DOCTYPE svg PUBLIC "-//W3C//DTD SVG 1.0//EN" "http://www.w3.org/TR/2001/REC-SVG-20010904/DTD/svg10.dtd">
<!-- Creator: CorelDRAW 2020 (64 Bit) -->
<svg xmlns="http://www.w3.org/2000/svg" xml:space="preserve" width="210mm" height="297mm" version="1.0" style="shape-rendering:geometricPrecision; text-rendering:geometricPrecision; image-rendering:optimizeQuality; fill-rule:evenodd; clip-rule:evenodd"
viewBox="0 0 21000 29700"
 xmlns:xlink="http://www.w3.org/1999/xlink"
 xmlns:xodm="http://www.corel.com/coreldraw/odm/2003">
 <defs>
  <style type="text/css">
   <![CDATA[
    .fil0 {fill:#E6A900}
    .fil1 {fill:white}
   ]]>
  </style>
 </defs>
 <g id="Camada_x0020_1">
  <metadata id="CorelCorpID_0Corel-Layer"/>
  <path class="fil0" d="M928.5 8033.18c0,0 -8.09,1239.15 -8.09,1239.15 0,0 -646.29,0.15 -646.29,0.15 0,0 -8.99,-2795.95 -8.99,-2795.95 0,0 67.39,-0.63 67.39,-0.63 102.73,-0.95 204,-8.17 306.35,-10.94 68.4,-1.84 140.15,-0.8 202.94,29.8 105.94,51.62 170.15,190.17 219.15,290.98 48.19,99.2 93.91,199.83 140.77,299.66 71.09,151.46 143.85,301.96 218.95,451.46 83.48,166.18 159.36,336.85 238.72,505.09 47.59,100.96 96.21,201.65 148.14,300.46 27.32,52 55.77,104.22 86.14,155.13 0,0 215.74,-390.47 215.74,-390.47 86.82,-177.68 183.17,-350.24 267.38,-529.27 169.39,-360.05 346.61,-717.72 533.81,-1068.84 0,0 19.06,-35.76 19.06,-35.76 0,0 615.2,-2.12 615.2,-2.12 0,0 15.37,2793.51 15.37,2793.51 0,0 -660.24,7.69 -660.24,7.69 0,0 -8.26,-1228.64 -8.26,-1228.64 0,0 -611.89,1230.57 -611.89,1230.57 0,0 -742.17,-2.06 -742.17,-2.06 0,0 -18.3,-38.75 -18.3,-38.75 -116.44,-246.65 -235.48,-491.83 -356.15,-736.46 -50.25,-101.86 -102.2,-203 -153.69,-304.27 -26.85,-52.81 -54.12,-105.99 -81.04,-159.49zm10407.75 -626.37c0,0 -18.75,1591.49 -18.75,1591.49 0,0 -537.13,8.44 -537.13,8.44 0,0 -0.29,-2125.17 -0.29,-2125.17 0,0 67.73,-0.09 67.73,-0.09 790.02,-1.1 1581.2,-27.13 2370.99,-2.3 144.24,4.56 298.42,36.02 388.85,159.36 66.95,91.27 82,210.15 85.72,320.2 4.49,132.15 -5.14,266.18 -5.17,398.71 -0.02,81.66 2.44,163.67 4.37,245.32 2.57,107.55 5.07,215.12 6.23,322.74 1.28,120.74 1.33,242.26 -4.17,362.89 -3.79,82.94 -9.5,188.95 -33.3,268.45 0,0 -14.47,48.27 -14.47,48.27 0,0 -475.91,0.53 -475.91,0.53 0,0 -12.13,-1592.59 -12.13,-1592.59 0,0 -645.91,-2.66 -645.91,-2.66 0,0 -2.23,1576.33 -2.23,1576.33 0,0 -536.47,22.56 -536.47,22.56 0,0 -2.29,-1598.84 -2.29,-1598.84 0,0 -635.67,-3.64 -635.67,-3.64zm4165.09 266.98c0,0 10.29,-259.34 10.29,-259.34 0,0 -1574.9,-7 -1574.9,-7 0,0 -17.52,-497.5 -17.52,-497.5 0,0 57,-10.96 57,-10.96 76.57,-14.74 158.76,-19.79 236.63,-22.86 94.58,-3.71 189.51,-3.73 284.16,-2.69 154.57,1.69 309.5,8.04 464,8.04 114.09,0 228.15,-1.43 342.22,-1.97 86.16,-0.4 173.2,-0.6 259.21,4.37 116.9,6.76 251.94,22.97 341.33,106.63 89.74,84.01 112.96,216.34 124.17,333.22 8.35,87 10.46,175.57 11.66,262.95 1.64,117.51 1.08,235.15 1.08,352.68 0,158.42 5.99,317.27 7.78,475.77 1.11,97.41 1.26,195.07 -1.99,292.45 -2.64,79.27 -6.9,162.68 -20.45,240.87 0,0 -9.27,53.68 -9.27,53.68 0,0 -54.41,2.52 -54.41,2.52 -393.88,18.11 -789.05,3.99 -1183.2,4.24 -124.92,0.08 -253.13,5.64 -377.55,-3.9 -106.52,-8.13 -217.42,-29.02 -305.18,-93.87 -114,-84.21 -155.64,-217.6 -168.93,-353.23 -14.93,-152.27 -24.5,-324.79 3.15,-476.01 20.09,-109.87 61.55,-213 147.28,-288.08 144.23,-126.32 379.6,-133.5 561.5,-133.99 137.27,-0.37 275.03,5.3 412.26,9.06 149.98,4.15 299.74,6.59 449.68,4.92zm-10123.15 0.27c0,0 4.68,-263.39 4.68,-263.39 0,0 -1584.27,-5.57 -1584.27,-5.57 0,0 1.31,-511.16 1.31,-511.16 0,0 61.92,-5.26 61.92,-5.26 172.65,-14.7 348.25,-14.88 521.47,-13.04 153.93,1.66 307.93,5.84 461.88,5.84 107.87,0 215.72,-1.59 323.57,-2.43 83.58,-0.67 167.92,-1.13 251.38,3.36 118.4,6.37 252.25,22.65 345.17,103.69 67.01,58.42 100.93,138.86 120.94,223.67 26.92,114.34 32.23,244.01 34.94,361.16 4.25,185.06 0.26,371.46 -2.57,556.56 -4.06,269.22 -7.65,538.25 -7.65,807.53 0,0 0,66.58 0,66.58 0,0 -66.55,1.22 -66.55,1.22 -393.66,7.2 -787.37,2.83 -1181.07,3.28 -404.46,0.46 -832.52,54.29 -863.87,-480.25 -8.99,-153.3 -12.43,-328.46 21.07,-479.06 23.86,-107.3 68.54,-207.1 157.05,-276.25 146.73,-114.6 383.29,-109 560.2,-104.52 134.38,3.41 268.6,10.3 403.07,13.18 146,3.17 291.58,2.19 437.33,-5.14zm11444.51 1331.86c0,0 -20.36,664.01 -20.36,664.01 0,0 -516.97,8.22 -516.97,8.22 0,0 -8.11,-2786.89 -8.11,-2786.89 0,0 63.12,-4.53 63.12,-4.53 238.16,-17.1 479.31,-16.03 717.98,-12.87 210.46,2.79 421.06,8.24 631.51,7.32 121.05,-0.54 256.68,0.97 375.45,25.8 85.67,17.91 167.78,50.16 225.93,118.35 65.02,76.26 83.5,178.92 91.37,275.8 5.11,62.19 6.02,125.16 6.31,187.54 0.35,77.48 -0.49,154.95 -0.6,232.44 -0.15,143.9 1.46,287.77 2.06,431.64 0.44,106.9 0.71,214.88 -5.36,321.59 -7.75,136.79 -25.48,301.7 -126.63,404.34 -118.68,120.41 -333.58,129.59 -492.03,133.88 -140.35,3.79 -281.83,0.78 -422.22,-1.37 -173.85,-2.68 -347.6,-5.09 -521.45,-5.27zm-7845.37 -794.93c0,0 -7.11,255.36 -7.11,255.36 0,0 1469.39,12.71 1469.39,12.71 0,0 5.43,514.58 5.43,514.58 0,0 -63.74,4.48 -63.74,4.48 -351.85,24.7 -707.81,7.88 -1060.39,8 -91.28,0.06 -182.73,-0.07 -273.97,-2.84 -70.51,-2.15 -141.96,-5.76 -211.9,-15.04 -103.47,-13.78 -211.62,-40.96 -286.4,-118.79 -103.21,-107.41 -113.09,-288.19 -117.08,-428.83 -3.34,-116.48 -0.91,-233.86 0.86,-350.39 2.4,-159.42 4.55,-318.67 3.97,-478.11 -1.62,-431.68 -9.61,-728.26 518.04,-733.47 187.58,-1.86 375.05,-6.18 562.59,-9.71 136.4,-2.59 274.11,-5.35 410.47,-0.46 160.56,5.74 369.5,19.81 488.77,142.08 61.13,62.67 91.48,143.27 108.51,227.68 21.8,108.24 24.13,227.81 24.2,338.01 0.09,161.33 -8.16,366.32 -123.23,492.16 -111.19,121.67 -292.88,141.56 -448.27,143 -166.27,1.49 -332.76,-3.72 -499.03,-6.64 -166.07,-2.92 -334.86,-4.74 -501.11,6.22zm10180.38 11.7c0,0 1.4,243.97 1.4,243.97 0,0 1475.02,12.11 1475.02,12.11 0,0 4.2,518.6 4.2,518.6 0,0 -65.42,2.81 -65.42,2.81 -354.16,15.24 -708.87,5.36 -1063.21,6.25 -127.7,0.33 -257.04,8.86 -384.45,2.72 -111.94,-5.4 -230.98,-23.55 -323.91,-90.97 -92.7,-67.3 -137.69,-167.42 -156.86,-277.77 -14.05,-81.04 -17.79,-168.7 -20,-250.87 -2.8,-103.26 -1.98,-206.84 -0.27,-310.12 2.75,-167.69 10.13,-336.3 9.77,-503.9 -0.2,-104.77 -0.78,-216.47 14.16,-320.24 11.85,-82.24 35.05,-163.17 89.32,-228.02 108.83,-130.15 315.11,-150.34 472.91,-159.35 141.24,-8.09 284.78,-6.47 426.21,-3.97 201.6,3.57 403.28,10.32 604.86,16.19 144.14,4.19 297.02,34.52 392.2,152.89 58.64,72.89 83.52,164.16 95.62,255.33 14.09,106.05 12.91,217.84 12.38,324.72 -0.99,192.56 -41.56,398.13 -209.31,515.6 -123.6,86.56 -284.75,102.75 -431.51,102.49 -168.02,-0.31 -337.07,-21.01 -504.92,-30.18 -143.12,-7.8 -296.29,-9.31 -438.19,21.71zm-11482.15 -1345.79c0,0 10.15,-567.37 10.15,-567.37 0,0 514.69,-3.82 514.69,-3.82 0,0 5.29,2694.71 5.29,2694.71 0,0 -66.33,1.58 -66.33,1.58 -266.65,6.27 -533.36,13.93 -800.01,18.25 -182.07,2.97 -366.66,5.36 -548.55,-3.76 -115.2,-5.77 -242.83,-16.22 -353.71,-49.52 -83.26,-24.99 -159.41,-64.4 -214.06,-133.84 -64.45,-81.94 -84.01,-187.53 -92.39,-288.84 -5.25,-63.32 -6.37,-127.39 -6.71,-190.91 -0.44,-77.36 0.38,-154.73 0.43,-232.11 0.08,-118.79 -6.87,-237.9 -10.62,-356.67 -7.47,-235.43 -17.21,-596.72 166.83,-772.79 27.71,-26.52 59.13,-48.36 93.6,-65.19 80.37,-39.17 217.36,-48.12 306.21,-52.53 141.86,-7.07 285.47,-5.25 427.43,-2.75 119.83,2.1 239.65,5.43 359.5,6.84 68.01,0.8 139.02,1.84 208.25,-1.28zm6727.94 1266.01c0,0 1172.22,-2.9 1172.22,-2.9 0,0 -10.62,405.78 -10.62,405.78 0,0 -1175.93,-8.86 -1175.93,-8.86 0,0 14.33,-394.02 14.33,-394.02zm-10120.69 -1.9c0,0 1168.71,4.69 1168.71,4.69 0,0 -5.62,398.78 -5.62,398.78 0,0 -1183.07,0.69 -1183.07,0.69 0,0 19.98,-404.16 19.98,-404.16zm12473.3 403.58c-33.72,-191.01 -40.55,-1030.79 4.76,-1205.75 0,0 1170.24,5.83 1170.24,5.83 0,0 -10.13,1198.46 -10.13,1198.46 0,0 -1164.87,1.46 -1164.87,1.46zm-7845.4 -1204.89c0,0 1170.95,-0.92 1170.95,-0.92 0,0 -8.15,404.91 -8.15,404.91 0,0 -1172.77,-10.37 -1172.77,-10.37 0,0 9.97,-393.62 9.97,-393.62zm10188.25 -0.79c0,0 1156.95,1.2 1156.95,1.2 40.65,128.78 34.44,269.53 8.3,404.56 0,0 -1174.03,-11.5 -1174.03,-11.5 0,0 8.78,-394.26 8.78,-394.26zm-12487.99 -0.76c0,0 1136.93,4.9 1136.93,4.9 0,0 -10.22,1200.73 -10.22,1200.73 0,0 -1141.48,-4.81 -1141.48,-4.81 0,0 14.77,-1200.82 14.77,-1200.82z"/>
  <path class="fil1" d="M13615.2 10352.22c0,0 0,126.62 0,126.62 0,0 517.01,0 517.01,0 0,0 0,265.25 0,265.25 0,0 -517.01,0 -517.01,0 0,0 0,167.33 0,167.33 0,0 574.27,0 574.27,0 0,0 0,289.38 0,289.38 0,0 -954.06,0 -954.06,0 0,0 0,-1124.4 0,-1124.4 0,0 937.47,0 937.47,0 0,0 0,275.82 0,275.82 0,0 -557.68,0 -557.68,0z"/>
  <path class="fil1" d="M11922.05 10537.61c0,0 140.93,0 140.93,0 15.08,0 44.72,-5.01 88.44,-14.82 22.11,-4.27 40.18,-15.59 54,-33.91 14.08,-18.33 21.09,-39.19 21.09,-62.82 0,-34.91 -11.03,-61.78 -33.14,-80.37 -22.12,-18.84 -63.56,-28.13 -124.6,-28.13 0,0 -146.72,0 -146.72,0 0,0 0,220.05 0,220.05z"/>
  <path class="fil1" d="M12370.21 10706.52c10.78,5.35 21.01,11.29 29.95,17.87 20.24,14.84 41.8,41.28 57.51,60.81 17.02,21.17 37.12,46.87 48.92,70.83 0,0 179.19,344.77 179.19,344.77 0,0 -427.5,0 -427.5,0 0,0 -184.62,-341.11 -184.62,-341.11 -11.55,-21.79 -33.33,-60.67 -53.12,-75.1 -20.81,-14.31 -43.87,-20.89 -69.08,-20.89 0,0 -6.81,0 -6.81,0 0,0 0,437.1 0,437.1 0,0 -379.79,0 -379.79,0 0,0 0,-1124.4 0,-1124.4 0,0 578.26,0 578.26,0 46.23,0 92.92,1.64 138.86,6.83 34.89,3.94 70.85,10.01 104.28,20.91 59.59,19.41 107.55,55.39 143.41,106.76 38.96,55.8 54.06,120.92 54.06,188.29 0,58.46 -11.8,115.59 -41.52,166.42 -27.89,47.66 -66.03,85.44 -113.36,113.96 -17.97,10.82 -37.98,19.63 -58.64,26.95z"/>
  <path class="fil1" d="M10115.61 10640.1c0,108.78 20.35,187.16 60.79,234.64 40.7,47.48 95.96,71.33 165.79,71.33 71.59,0 127.37,-23.34 166.55,-69.82 39.45,-46.74 59.05,-130.13 59.05,-250.97 0,-101.49 -20.6,-175.59 -61.56,-222.3 -41.18,-47 -96.72,-70.37 -167.06,-70.37 -67.32,0 -121.58,23.88 -162.28,71.37 -40.93,47.48 -61.28,126.34 -61.28,236.12z"/>
  <path class="fil1" d="M9759.91 10639.36c0,-158.62 38.95,-312.51 153.83,-427.23 114.72,-114.56 267.66,-153.83 426.2,-153.83 158.15,0 315.7,36.6 431.16,150.99 113.85,112.83 152.4,264.74 152.4,421.26 0,108.27 -15.13,223.58 -66.17,320.54 -44.64,84.8 -109.5,150.76 -193.09,197.6 -94.37,52.86 -204.28,70.21 -311.25,70.21 -104.99,0 -216.69,-13.9 -312.09,-60.33 -87.46,-42.54 -154.19,-109.47 -203.51,-192.97 -58.03,-98.21 -77.48,-213.49 -77.48,-326.24z"/>
  <path class="fil1" d="M8854.53 10388.39c0,0 0,812.41 0,812.41 0,0 -378.31,0 -378.31,0 0,0 0,-812.41 0,-812.41 0,0 -340.66,0 -340.66,0 0,0 0,-311.99 0,-311.99 0,0 1059.6,0 1059.6,0 0,0 0,311.99 0,311.99 0,0 -340.63,0 -340.63,0z"/>
  <path class="fil1" d="M6688.93 11106.25c-77.61,-77.6 -117.05,-174.18 -126.37,-283.09 0,0 -1.95,-23.04 -1.95,-23.04 0,0 360.65,-22.62 360.65,-22.62 0,0 2.77,20.91 2.77,20.91 4.68,35.35 14.64,77.45 37.26,105.99 32.69,41.29 77.69,56.77 129.49,56.77 32.79,0 69.37,-5.65 94.96,-27.9 18.59,-16.15 30.9,-35.45 30.9,-60.53 0,-23.86 -11.67,-42.67 -29,-58.38 -30,-27.21 -121.25,-48.59 -160.05,-57.24 -105.77,-23.57 -239.09,-63.42 -322.44,-135.89 -68.11,-59.2 -101.97,-134.84 -101.97,-225.06 0,-61.33 18.46,-117.74 51.91,-169.09 37.57,-57.67 92.32,-97.44 154.85,-124.68 82.35,-35.88 185.45,-44.1 274.32,-44.1 110.16,0 236.17,15.85 328.34,81.29 86.93,61.74 125.75,157.45 138.48,260.6 0,0 2.94,23.9 2.94,23.9 0,0 -357.81,21.22 -357.81,21.22 0,0 -3.38,-19.99 -3.38,-19.99 -5.63,-33.37 -17.68,-70.74 -44.66,-93.14 -26.62,-22.14 -62.66,-28.21 -96.34,-28.21 -23.88,0 -54.09,3.46 -73.18,19.38 -13.62,11.34 -21.27,24.85 -21.27,42.69 0,12.11 7.34,21.53 16.12,29.18 0,0 0.28,0.26 0.28,0.26 0,0 0.29,0.25 0.29,0.25 16.74,15.67 78.47,29.39 100.59,34.12 63.5,13.57 127.24,28.85 189.36,47.87 43.33,13.26 88.53,28.92 128.95,49.55 58.69,30 112.34,70.9 146.74,128.06 31.56,52.5 46.2,110.21 46.2,171.41 0,73.85 -20.47,142.06 -60.99,203.82 -42.08,64.17 -100.16,110.43 -170.34,141.19 -82.91,36.4 -178.82,47.15 -268.58,47.15 -128.52,0 -300.86,-16.46 -397.07,-112.65z"/>
 </g>
</svg>
