<?xml version="1.0" encoding="UTF-8"?>
<!DOCTYPE svg PUBLIC "-//W3C//DTD SVG 1.1//EN" "http://www.w3.org/Graphics/SVG/1.1/DTD/svg11.dtd">
<!-- Creator: CorelDRAW 2020 (64 Bit) -->
<svg xmlns="http://www.w3.org/2000/svg" xml:space="preserve" width="210mm" height="297mm" version="1.1" style="shape-rendering:geometricPrecision; text-rendering:geometricPrecision; image-rendering:optimizeQuality; fill-rule:evenodd; clip-rule:evenodd"
viewBox="0 0 21000 29700"
 xmlns:xlink="http://www.w3.org/1999/xlink"
 xmlns:xodm="http://www.corel.com/coreldraw/odm/2003">
 <defs>
  <style type="text/css">
   <![CDATA[
    .fil0 {fill:#D67F0D}
    .fil2 {fill:white}
    .fil1 {fill:white;fill-rule:nonzero}
   ]]>
  </style>
 </defs>
 <g id="Camada_x0020_1">
  <metadata id="CorelCorpID_0Corel-Layer"/>
  <path class="fil0" d="M4534.01 3041.99c0,0 202.03,2.51 202.03,2.51 0,0 1.62,-548.94 1.62,-548.94 39.71,26.35 240.23,472.5 278.16,547.94 0,0 246.07,1.72 246.07,1.72 0,0 264.85,-541.4 264.85,-541.4 31.77,36.65 17.75,193.69 17.68,265.38 -0.09,83.36 -5.95,192.4 2.15,272.66 0,0 199.91,2.9 199.91,2.9 0,0 2.24,-1019.63 2.24,-1019.63 0,0 -198.47,-3.5 -198.47,-3.5 -57.29,68.18 -338.04,705.59 -410.03,810.87 -67.99,-101.95 -140.15,-280.21 -202.5,-401.91 -35.6,-69.51 -174.85,-368.62 -204.49,-406.66 0,0 -197.16,-1.4 -197.16,-1.4 0,0 -2.06,1019.46 -2.06,1019.46zm2843.97 -867.86c-333.43,21.04 -594.96,-87.85 -594.53,191.1 0.13,89.8 0.18,179.59 0.18,269.4 -0.01,216.22 -22.69,309.29 218,308.39 158.86,-0.61 375.3,12.76 526.77,-2.67 0,0 1.74,-978.67 1.74,-978.67 0,0 -151.43,-2.57 -151.43,-2.57 0,0 -0.73,215.02 -0.73,215.02zm-1486.17 147.9c79.73,27.45 479.19,-3.84 604.78,10.06 0,0 1.58,151.64 1.58,151.64 -509.44,24.29 -621.15,-105.84 -604.96,305.24 6.76,171.62 146.15,154.06 301.04,154.06 92.6,0 386.47,11.56 455.87,-5.67 7.3,-119.55 1.21,-258.01 1.19,-379.62 -0.06,-395.31 16.84,-381.63 -380.17,-381.57 -89.39,0.01 -303.07,-10.73 -377.75,4.09 0,0 -1.58,141.77 -1.58,141.77zm2493.84 619.87c0,0 2.77,-149.25 2.77,-149.25 0,0 -562.64,-0.83 -562.64,-0.83 0,0 -4.83,-152.36 -4.83,-152.36 103.14,-13.96 291.92,-3.81 401.45,-3.21 169.45,0.93 205.63,-44.26 205.3,-213.08 -0.59,-302.99 -77.42,-249.04 -580.61,-247.18 -167.74,0.61 -176.66,77.81 -176.52,237.57 0.46,502.4 -61.38,529.23 301.88,529.46 136.04,0.08 277.83,3.76 413.2,-1.12zm-1449.61 -155.26c0,0 440.24,3.19 440.24,3.19 0,0 1.57,-459.19 1.57,-459.19 0,0 -438.93,-0.87 -438.93,-0.87 0,0 -2.88,456.87 -2.88,456.87zm-891.02 3.82c0,0 449.51,1.46 449.51,1.46 0,0 4.53,-152.73 4.53,-152.73 0,0 -453.39,-2.76 -453.39,-2.76 0,0 -0.65,154.03 -0.65,154.03zm1776.94 -307.05c0,0 450.96,1.15 450.96,1.15 0,0 4.03,-152.28 4.03,-152.28 0,0 -453.36,-2.6 -453.36,-2.6 0,0 -1.63,153.73 -1.63,153.73z"/>
  <polygon class="fil1" points="11169.67,2176.81 10967.17,2176.81 10753.72,2372.75 10651.92,2465.79 10539.18,2568.68 10539.18,2176.81 10402.35,2176.81 10402.35,2943.04 10539.18,2943.04 10539.18,2753.67 10732.92,2577.44 10997.82,2943.04 11166.39,2943.04 10834.72,2484.4 "/>
  <polygon class="fil1" points="10157.16,2176.81 10157.16,2664.28 9664.59,2285 9527.76,2180.1 9527.76,2943.04 9664.59,2943.04 9664.59,2458.86 10157.16,2838.14 10293.98,2943.04 10293.98,2177.91 "/>
  <polygon class="fil1" points="9418.3,2943.04 9418.3,2384.65 9281.47,2384.65 9281.47,2943.04 "/>
  <path class="fil1" d="M8770.29 2805.12c-48.16,-6.57 -86.47,-44.88 -93.04,-93.05l0 -535.26 -136.83 0 0 522.13c0,38.31 8.76,74.44 25.18,107.27 22.99,48.16 62.39,87.57 110.55,111.65 32.84,16.42 68.96,25.18 107.28,25.18l388.58 0 0 -136.83 -401.72 -1.09z"/>
  <rect class="fil2" x="8519.94" y="2045.97" width="2652.19" height="23.42"/>
  <path class="fil1" d="M4573.33 3319.86c0,-4.82 2.07,-8.92 6.2,-12.29 4.13,-3.37 9.91,-5.06 17.35,-5.06 6.61,0 13.15,1.27 19.62,3.82 6.47,2.55 13.01,6.23 19.62,11.05l13.63 -19.21c-7.43,-5.92 -15.39,-10.43 -23.85,-13.53 -8.47,-3.09 -18.01,-4.64 -28.61,-4.64 -7.16,0 -13.77,0.99 -19.79,2.99 -6.06,2 -11.22,4.86 -15.53,8.57 -4.3,3.72 -7.67,8.16 -10.15,13.32 -2.45,5.17 -3.69,10.92 -3.69,17.25 0,6.75 1.07,12.46 3.21,17.14 2.13,4.69 5.26,8.68 9.32,11.98 4.07,3.31 9.13,6.06 15.12,8.26 6.02,2.21 12.87,4.2 20.62,5.99 6.74,1.66 12.22,3.24 16.45,4.75 4.2,1.52 7.5,3.14 9.95,4.86 2.41,1.72 4.06,3.61 4.96,5.68 0.89,2.06 1.34,4.4 1.34,7.02 0,5.65 -2.31,10.12 -6.92,13.43 -4.61,3.3 -10.84,4.95 -18.69,4.95 -9.09,0 -17.21,-1.62 -24.37,-4.85 -7.16,-3.24 -14.26,-7.88 -21.28,-13.94l-15.28 18.17c8.67,7.85 18.1,13.67 28.29,17.46 10.19,3.78 20.86,5.68 32.02,5.68 7.57,0 14.52,-0.97 20.86,-2.9 6.3,-1.92 11.74,-4.75 16.21,-8.46 4.51,-3.72 8.02,-8.27 10.57,-13.64 2.51,-5.37 3.79,-11.49 3.79,-18.38 0,-6.06 -1,-11.32 -3,-15.8 -2,-4.47 -4.96,-8.4 -8.81,-11.77 -3.86,-3.37 -8.74,-6.23 -14.6,-8.57 -5.85,-2.34 -12.6,-4.48 -20.17,-6.41 -6.92,-1.65 -12.6,-3.23 -17.11,-4.75 -4.47,-1.51 -7.98,-3.16 -10.57,-4.95 -2.54,-1.79 -4.3,-3.72 -5.26,-5.79 -0.97,-2.06 -1.45,-4.54 -1.45,-7.43z"/>
  <polygon id="1" class="fil1" points="4853.2,3282.06 4746.21,3282.06 4746.21,3426.64 4854.23,3426.64 4854.23,3403.71 4771.41,3403.71 4771.41,3365.09 4843.9,3365.09 4843.9,3342.17 4771.41,3342.17 4771.41,3304.99 4853.2,3304.99 "/>
  <path id="2" class="fil1" d="M5067.99 3282.06l-25.19 0 0 83.24c0,13.35 -3.27,23.41 -9.78,30.15 -6.51,6.75 -15.42,10.12 -26.78,10.12 -11.5,0 -20.48,-3.51 -26.99,-10.53 -6.51,-7.02 -9.78,-17.28 -9.78,-30.78l0 -82.2 -25.19 0 0 83.24c0,10.46 1.44,19.65 4.33,27.57 2.9,7.92 7.03,14.56 12.4,19.93 5.37,5.37 11.84,9.4 19.41,12.08 7.57,2.69 16.04,4.03 25.41,4.03 9.5,0 18.07,-1.34 25.71,-4.03 7.64,-2.68 14.15,-6.74 19.52,-12.18 5.37,-5.44 9.53,-12.22 12.49,-20.35 2.96,-8.12 4.44,-17.55 4.44,-28.29l0 -82z"/>
  <path id="3" class="fil1" d="M5538.48 3403.51l-16.32 -16.53c-6.19,5.79 -12.46,10.37 -18.79,13.74 -6.33,3.37 -13.91,5.06 -22.72,5.06 -6.88,0 -13.25,-1.34 -19.1,-4.03 -5.86,-2.68 -10.92,-6.37 -15.19,-11.05 -4.26,-4.68 -7.57,-10.15 -9.91,-16.42 -2.34,-6.26 -3.51,-12.98 -3.51,-20.14 0,-7.16 1.17,-13.83 3.51,-20.03 2.34,-6.2 5.65,-11.6 9.91,-16.21 4.27,-4.62 9.33,-8.26 15.19,-10.95 5.85,-2.68 12.22,-4.03 19.1,-4.03 8.26,0 15.63,1.65 22.1,4.96 6.47,3.3 12.6,7.64 18.38,13.01l16.32 -18.79c-3.44,-3.31 -7.09,-6.34 -10.95,-9.09 -3.85,-2.76 -8.05,-5.13 -12.6,-7.13 -4.54,-1.99 -9.53,-3.54 -14.97,-4.64 -5.44,-1.11 -11.46,-1.66 -18.07,-1.66 -11.02,0 -21.07,1.97 -30.16,5.89 -9.09,3.92 -16.93,9.29 -23.54,16.11 -6.61,6.82 -11.74,14.77 -15.39,23.86 -3.65,9.08 -5.47,18.79 -5.47,29.12 0,10.46 1.85,20.24 5.57,29.33 3.72,9.08 8.85,16.97 15.39,23.65 6.54,6.67 14.29,11.94 23.24,15.8 8.95,3.85 18.72,5.78 29.32,5.78 6.75,0 12.91,-0.59 18.49,-1.76 5.58,-1.17 10.71,-2.89 15.39,-5.16 4.68,-2.27 9.05,-4.96 13.11,-8.06 4.06,-3.09 7.95,-6.64 11.67,-10.63z"/>
  <path id="4" class="fil1" d="M5701.86 3281.03l-23.55 0 -63.61 145.61 26.02 0 14.87 -34.91 68.37 0 14.66 34.91 26.85 0 -63.61 -145.61zm12.8 88.19l-49.77 0 24.78 -57.83 24.99 57.83z"/>
  <path id="5" class="fil1" d="M5974.9 3426.64l-39.03 -54.73c5.09,-1.38 9.74,-3.34 13.94,-5.89 4.2,-2.55 7.81,-5.64 10.84,-9.29 3.03,-3.65 5.41,-7.85 7.13,-12.6 1.72,-4.75 2.58,-10.16 2.58,-16.22 0,-7.02 -1.24,-13.39 -3.72,-19.1 -2.48,-5.72 -6.02,-10.53 -10.64,-14.46 -4.61,-3.92 -10.25,-6.95 -16.93,-9.09 -6.68,-2.13 -14.15,-3.2 -22.41,-3.2l-64.44 0 0 144.58 25.2 0 0 -50.4 31.91 0 35.63 50.4 29.94 0zm-30.36 -97.38c0,7.47 -2.68,13.42 -8.09,17.83 -5.37,4.44 -12.63,6.64 -21.75,6.64l-37.28 0 0 -48.74 37.07 0c9.54,0 16.94,2.03 22.17,6.13 5.27,4.06 7.88,10.12 7.88,18.14z"/>
  <polygon id="6" class="fil1" points="6124.64,3305.61 6170.5,3305.61 6170.5,3282.06 6053.18,3282.06 6053.18,3305.61 6099.03,3305.61 6099.03,3426.64 6124.64,3426.64 "/>
  <path id="7" class="fil1" d="M6334.08 3281.03l-23.55 0 -63.61 145.61 26.02 0 14.87 -34.91 68.37 0 14.66 34.91 26.85 0 -63.61 -145.61zm12.8 88.19l-49.77 0 24.78 -57.83 24.99 57.83zm14.46 -124.75l-13.84 -4.34c-1.51,3.58 -3.03,6.2 -4.54,7.85 -1.52,1.66 -3.79,2.48 -6.82,2.48 -1.93,0 -3.99,-0.41 -6.19,-1.24 -2.21,-0.82 -4.58,-1.75 -7.13,-2.79 -2.55,-1.03 -5.2,-1.99 -7.95,-2.89 -2.76,-0.89 -5.58,-1.34 -8.47,-1.34 -6.33,0 -11.19,2.2 -14.56,6.61 -3.37,4.41 -6.23,10.81 -8.57,19.21l13.84 4.13c1.51,-3.58 3.02,-6.2 4.54,-7.85 1.51,-1.65 3.79,-2.48 6.82,-2.48 1.79,0 3.82,0.45 6.09,1.34 2.27,0.9 4.68,1.86 7.23,2.9 2.54,1.03 5.19,1.96 7.95,2.78 2.75,0.83 5.58,1.24 8.47,1.24 6.33,0 11.18,-2.2 14.56,-6.61 3.37,-4.4 6.23,-10.74 8.57,-19z"/>
  <path id="8" class="fil1" d="M6629.22 3354.14c0,-10.18 -1.86,-19.82 -5.57,-28.91 -3.72,-9.09 -8.88,-17.01 -15.49,-23.75 -6.61,-6.75 -14.53,-12.09 -23.76,-16.01 -9.22,-3.92 -19.41,-5.89 -30.56,-5.89 -11.16,0 -21.35,2 -30.57,5.99 -9.23,4 -17.21,9.4 -23.96,16.22 -6.75,6.81 -11.98,14.76 -15.7,23.85 -3.72,9.09 -5.57,18.73 -5.57,28.92 0,10.19 1.85,19.83 5.57,28.91 3.72,9.09 8.88,17.01 15.49,23.76 6.61,6.74 14.53,12.08 23.76,16 9.22,3.93 19.41,5.89 30.56,5.89 11.16,0 21.35,-2 30.57,-5.99 9.23,-3.99 17.21,-9.4 23.96,-16.21 6.75,-6.82 11.98,-14.77 15.7,-23.86 3.71,-9.09 5.57,-18.73 5.57,-28.92zm-26.64 0.42c0,7.02 -1.21,13.66 -3.61,19.93 -2.41,6.26 -5.75,11.7 -10.02,16.32 -4.27,4.61 -9.4,8.26 -15.39,10.94 -5.99,2.69 -12.56,4.03 -19.72,4.03 -7.16,0 -13.77,-1.38 -19.83,-4.13 -6.06,-2.76 -11.26,-6.47 -15.6,-11.15 -4.33,-4.69 -7.71,-10.16 -10.12,-16.42 -2.41,-6.27 -3.61,-12.91 -3.61,-19.94 0,-7.02 1.2,-13.66 3.61,-19.93 2.41,-6.26 5.75,-11.7 10.02,-16.31 4.27,-4.62 9.4,-8.26 15.39,-10.95 5.99,-2.68 12.56,-4.03 19.72,-4.03 7.16,0 13.77,1.38 19.83,4.13 6.06,2.76 11.26,6.47 15.59,11.16 4.34,4.68 7.72,10.15 10.13,16.42 2.4,6.26 3.61,12.91 3.61,19.93z"/>
  <path id="9" class="fil1" d="M7100.54 3354.14c0,-10.18 -1.86,-19.69 -5.58,-28.5 -3.72,-8.81 -8.98,-16.45 -15.8,-22.92 -6.81,-6.48 -14.94,-11.54 -24.37,-15.18 -9.43,-3.65 -19.79,-5.48 -31.08,-5.48l-53.91 0 0 144.58 53.91 0c11.29,0 21.65,-1.86 31.08,-5.58 9.43,-3.71 17.56,-8.81 24.37,-15.28 6.82,-6.47 12.08,-14.15 15.8,-23.03 3.72,-8.88 5.58,-18.42 5.58,-28.61zm-26.65 0.42c0,7.19 -1.2,13.8 -3.61,19.79 -2.41,6.03 -5.82,11.22 -10.15,15.56 -4.34,4.37 -9.64,7.75 -15.84,10.19 -6.23,2.41 -13.11,3.61 -20.72,3.61l-28.57 0 0 -98.72 28.57 0c7.61,0 14.49,1.24 20.72,3.72 6.2,2.51 11.5,5.95 15.84,10.39 4.33,4.41 7.74,9.64 10.15,15.66 2.41,5.99 3.61,12.6 3.61,19.8z"/>
  <polygon id="10" class="fil1" points="7300.26,3282.06 7193.27,3282.06 7193.27,3426.64 7301.29,3426.64 7301.29,3403.71 7218.47,3403.71 7218.47,3365.09 7290.96,3365.09 7290.96,3342.17 7218.47,3342.17 7218.47,3304.99 7300.26,3304.99 "/>
  <polygon id="11" class="fil1" points="7700.73,3393.18 7657.15,3282.06 7629.06,3282.06 7689.16,3427.67 7711.47,3427.67 7771.57,3282.06 7744.1,3282.06 "/>
  <polygon id="12" class="fil1" points="7859.75,3282.06 7859.75,3426.64 7884.95,3426.64 7884.95,3282.06 "/>
  <path id="13" class="fil1" d="M8007.01 3319.86c0,-4.82 2.07,-8.92 6.2,-12.29 4.13,-3.37 9.91,-5.06 17.35,-5.06 6.61,0 13.15,1.27 19.62,3.82 6.47,2.55 13.01,6.23 19.62,11.05l13.63 -19.21c-7.43,-5.92 -15.39,-10.43 -23.85,-13.53 -8.47,-3.09 -18.01,-4.64 -28.61,-4.64 -7.16,0 -13.77,0.99 -19.79,2.99 -6.06,2 -11.22,4.86 -15.53,8.57 -4.3,3.72 -7.67,8.16 -10.15,13.32 -2.45,5.17 -3.69,10.92 -3.69,17.25 0,6.75 1.07,12.46 3.21,17.14 2.13,4.69 5.26,8.68 9.32,11.98 4.07,3.31 9.13,6.06 15.12,8.26 6.02,2.21 12.87,4.2 20.62,5.99 6.74,1.66 12.22,3.24 16.45,4.75 4.2,1.52 7.5,3.14 9.95,4.86 2.41,1.72 4.06,3.61 4.96,5.68 0.89,2.06 1.34,4.4 1.34,7.02 0,5.65 -2.31,10.12 -6.92,13.43 -4.61,3.3 -10.84,4.95 -18.69,4.95 -9.09,0 -17.21,-1.62 -24.37,-4.85 -7.16,-3.24 -14.26,-7.88 -21.28,-13.94l-15.28 18.17c8.67,7.85 18.1,13.67 28.29,17.46 10.19,3.78 20.86,5.68 32.02,5.68 7.57,0 14.52,-0.97 20.86,-2.9 6.3,-1.92 11.74,-4.75 16.21,-8.46 4.51,-3.72 8.02,-8.27 10.57,-13.64 2.51,-5.37 3.79,-11.49 3.79,-18.38 0,-6.06 -1,-11.32 -3,-15.8 -2,-4.47 -4.96,-8.4 -8.81,-11.77 -3.86,-3.37 -8.74,-6.23 -14.6,-8.57 -5.85,-2.34 -12.6,-4.48 -20.17,-6.41 -6.92,-1.65 -12.6,-3.23 -17.11,-4.75 -4.47,-1.51 -7.98,-3.16 -10.57,-4.95 -2.54,-1.79 -4.3,-3.72 -5.26,-5.79 -0.97,-2.06 -1.45,-4.54 -1.45,-7.43z"/>
  <polygon id="14" class="fil1" points="8181.33,3282.06 8181.33,3426.64 8206.53,3426.64 8206.53,3282.06 "/>
  <polygon id="15" class="fil1" points="8368.45,3305.61 8414.31,3305.61 8414.31,3282.06 8296.99,3282.06 8296.99,3305.61 8342.84,3305.61 8342.84,3426.64 8368.45,3426.64 "/>
  <path id="16" class="fil1" d="M8577.89 3281.03l-23.55 0 -63.61 145.61 26.02 0 14.87 -34.91 68.37 0 14.66 34.91 26.85 0 -63.61 -145.61zm12.8 88.19l-49.77 0 24.78 -57.83 24.99 57.83z"/>
  <polygon id="17" class="fil1" points="8900.91,3293.42 8906.28,3314.08 8932.3,3306.85 8932.3,3426.64 8957.5,3426.64 8957.5,3281.03 8939.74,3281.03 "/>
  <path id="18" class="fil1" d="M9177.05 3354.14c0,-10.32 -1.48,-20.03 -4.44,-29.12 -2.96,-9.09 -7.19,-17 -12.7,-23.75 -5.51,-6.75 -12.12,-12.05 -19.83,-15.9 -7.71,-3.86 -16.32,-5.79 -25.82,-5.79 -9.5,0 -18.14,1.97 -25.92,5.89 -7.78,3.92 -14.42,9.26 -19.93,16.01 -5.51,6.74 -9.77,14.7 -12.8,23.85 -3.03,9.16 -4.55,18.9 -4.55,29.23 0,10.32 1.48,20.03 4.44,29.12 2.96,9.09 7.2,17 12.71,23.75 5.5,6.75 12.11,12.05 19.82,15.91 7.71,3.85 16.32,5.78 25.82,5.78 9.5,0 18.14,-1.96 25.92,-5.89 7.78,-3.92 14.43,-9.26 19.93,-16 5.51,-6.75 9.78,-14.7 12.81,-23.86 3.03,-9.16 4.54,-18.9 4.54,-29.23zm-26.23 0.42c0,7.16 -0.86,13.87 -2.58,20.14 -1.72,6.26 -4.17,11.73 -7.33,16.42 -3.17,4.68 -6.99,8.36 -11.47,11.05 -4.47,2.68 -9.53,4.02 -15.18,4.02 -5.64,0 -10.74,-1.34 -15.28,-4.02 -4.54,-2.69 -8.43,-6.41 -11.67,-11.16 -3.24,-4.75 -5.71,-10.26 -7.43,-16.52 -1.73,-6.27 -2.59,-13.05 -2.59,-20.35 0,-7.16 0.86,-13.9 2.59,-20.24 1.72,-6.33 4.16,-11.8 7.33,-16.42 3.16,-4.61 6.99,-8.26 11.46,-10.94 4.48,-2.69 9.54,-4.03 15.18,-4.03 5.65,0 10.74,1.38 15.28,4.13 4.55,2.75 8.44,6.47 11.67,11.15 3.24,4.68 5.72,10.19 7.44,16.53 1.72,6.33 2.58,13.08 2.58,20.24z"/>
  <path id="19" class="fil1" d="M9388.54 3354.14c0,-10.32 -1.48,-20.03 -4.44,-29.12 -2.96,-9.09 -7.19,-17 -12.7,-23.75 -5.51,-6.75 -12.12,-12.05 -19.83,-15.9 -7.71,-3.86 -16.32,-5.79 -25.82,-5.79 -9.5,0 -18.14,1.97 -25.92,5.89 -7.78,3.92 -14.42,9.26 -19.93,16.01 -5.51,6.74 -9.77,14.7 -12.8,23.85 -3.03,9.16 -4.55,18.9 -4.55,29.23 0,10.32 1.48,20.03 4.44,29.12 2.96,9.09 7.2,17 12.71,23.75 5.5,6.75 12.11,12.05 19.82,15.91 7.71,3.85 16.32,5.78 25.82,5.78 9.5,0 18.14,-1.96 25.92,-5.89 7.78,-3.92 14.43,-9.26 19.93,-16 5.51,-6.75 9.78,-14.7 12.81,-23.86 3.03,-9.16 4.54,-18.9 4.54,-29.23zm-26.23 0.42c0,7.16 -0.86,13.87 -2.58,20.14 -1.72,6.26 -4.17,11.73 -7.33,16.42 -3.17,4.68 -6.99,8.36 -11.47,11.05 -4.47,2.68 -9.53,4.02 -15.18,4.02 -5.64,0 -10.74,-1.34 -15.28,-4.02 -4.54,-2.69 -8.43,-6.41 -11.67,-11.16 -3.24,-4.75 -5.71,-10.26 -7.43,-16.52 -1.73,-6.27 -2.59,-13.05 -2.59,-20.35 0,-7.16 0.86,-13.9 2.59,-20.24 1.72,-6.33 4.16,-11.8 7.33,-16.42 3.16,-4.61 6.99,-8.26 11.46,-10.94 4.48,-2.69 9.54,-4.03 15.18,-4.03 5.65,0 10.74,1.38 15.28,4.13 4.55,2.75 8.44,6.47 11.67,11.15 3.24,4.68 5.72,10.19 7.44,16.53 1.72,6.33 2.58,13.08 2.58,20.24z"/>
  <path id="20" class="fil1" d="M9540.34 3317.17c0,-4.95 -0.82,-9.67 -2.48,-14.14 -1.65,-4.48 -3.96,-8.4 -6.92,-11.78 -2.96,-3.37 -6.5,-6.02 -10.63,-7.95 -4.13,-1.93 -8.75,-2.89 -13.84,-2.89 -5.1,0 -9.74,1 -13.94,2.99 -4.2,2 -7.82,4.69 -10.85,8.06 -3.02,3.37 -5.37,7.3 -7.02,11.77 -1.65,4.48 -2.48,9.26 -2.48,14.36 0,4.95 0.83,9.67 2.48,14.14 1.65,4.48 3.96,8.4 6.92,11.78 2.96,3.37 6.51,6.02 10.64,7.95 4.13,1.93 8.74,2.89 13.84,2.89 5.09,0 9.74,-1 13.94,-2.99 4.2,-2 7.81,-4.69 10.84,-8.06 3.03,-3.37 5.37,-7.3 7.02,-11.77 1.66,-4.48 2.48,-9.26 2.48,-14.36zm72.7 -35.11l-20.44 0 -105.75 144.58 20.45 0 105.74 -144.58zm14.67 109.06c0,-4.96 -0.83,-9.68 -2.48,-14.15 -1.65,-4.48 -3.96,-8.4 -6.92,-11.78 -2.96,-3.37 -6.51,-6.02 -10.64,-7.95 -4.13,-1.93 -8.74,-2.89 -13.83,-2.89 -5.1,0 -9.75,1 -13.95,3 -4.2,1.99 -7.81,4.68 -10.84,8.05 -3.03,3.37 -5.37,7.3 -7.02,11.77 -1.65,4.48 -2.48,9.26 -2.48,14.36 0,4.96 0.83,9.67 2.48,14.15 1.65,4.47 3.96,8.4 6.92,11.77 2.96,3.37 6.5,6.02 10.63,7.95 4.14,1.93 8.75,2.89 13.84,2.89 5.1,0 9.74,-1 13.94,-2.99 4.2,-2 7.82,-4.68 10.85,-8.06 3.03,-3.37 5.37,-7.3 7.02,-11.77 1.65,-4.48 2.48,-9.26 2.48,-14.35zm-105.75 -73.53c0,5.78 -1.38,10.7 -4.13,14.76 -2.75,4.07 -6.54,6.1 -11.36,6.1 -4.68,0 -8.5,-2.03 -11.46,-6.1 -2.96,-4.06 -4.44,-9.12 -4.44,-15.18 0,-5.78 1.37,-10.7 4.13,-14.76 2.75,-4.07 6.54,-6.1 11.36,-6.1 4.68,0 8.5,2.03 11.46,6.1 2.96,4.06 4.44,9.12 4.44,15.18zm87.37 73.94c0,5.78 -1.38,10.7 -4.13,14.77 -2.76,4.06 -6.54,6.09 -11.36,6.09 -4.69,0 -8.51,-2.03 -11.47,-6.09 -2.96,-4.07 -4.44,-9.13 -4.44,-15.18 0,-5.79 1.38,-10.71 4.13,-14.77 2.76,-4.06 6.54,-6.1 11.36,-6.1 4.68,0 8.51,2.04 11.47,6.1 2.96,4.06 4.44,9.12 4.44,15.18z"/>
  <path id="21" class="fil1" d="M10096.75 3354.14c0,-10.18 -1.86,-19.69 -5.58,-28.5 -3.72,-8.81 -8.98,-16.45 -15.8,-22.92 -6.81,-6.48 -14.94,-11.54 -24.37,-15.18 -9.43,-3.65 -19.79,-5.48 -31.08,-5.48l-53.91 0 0 144.58 53.91 0c11.29,0 21.65,-1.86 31.08,-5.58 9.43,-3.71 17.56,-8.81 24.37,-15.28 6.82,-6.47 12.08,-14.15 15.8,-23.03 3.72,-8.88 5.58,-18.42 5.58,-28.61zm-26.65 0.42c0,7.19 -1.2,13.8 -3.61,19.79 -2.41,6.03 -5.82,11.22 -10.15,15.56 -4.34,4.37 -9.64,7.75 -15.84,10.19 -6.23,2.41 -13.11,3.61 -20.72,3.61l-28.57 0 0 -98.72 28.57 0c7.61,0 14.49,1.24 20.72,3.72 6.2,2.51 11.5,5.95 15.84,10.39 4.33,4.41 7.74,9.64 10.15,15.66 2.41,5.99 3.61,12.6 3.61,19.8z"/>
  <polygon id="22" class="fil1" points="10190.92,3282.06 10190.92,3426.64 10216.12,3426.64 10216.12,3282.06 "/>
  <path id="23" class="fil1" d="M10445.79 3406.61l0 -60.73 -61.55 0 0 22.1 36.97 0 0 27.2c-4.4,3.34 -9.6,5.99 -15.59,8.02 -5.99,1.99 -12.43,2.99 -19.31,2.99 -7.44,0 -14.15,-1.31 -20.14,-3.92 -5.99,-2.62 -11.15,-6.27 -15.49,-10.88 -4.34,-4.61 -7.68,-10.09 -10.02,-16.45 -2.34,-6.34 -3.51,-13.26 -3.51,-20.69 0,-7.02 1.2,-13.67 3.61,-19.86 2.41,-6.24 5.72,-11.67 9.92,-16.36 4.2,-4.68 9.15,-8.39 14.87,-11.08 5.71,-2.68 11.87,-4.03 18.48,-4.03 4.55,0 8.71,0.38 12.5,1.14 3.79,0.76 7.26,1.79 10.43,3.1 3.17,1.3 6.2,2.92 9.09,4.85 2.89,1.93 5.71,4.06 8.47,6.4l16.11 -19.21c-3.72,-3.16 -7.54,-5.95 -11.47,-8.36 -3.92,-2.41 -8.09,-4.44 -12.49,-6.09 -4.41,-1.66 -9.19,-2.93 -14.36,-3.82 -5.16,-0.9 -10.91,-1.35 -17.24,-1.35 -10.88,0 -20.9,2 -30.05,5.99 -9.16,4 -17.04,9.4 -23.65,16.22 -6.61,6.81 -11.74,14.76 -15.39,23.85 -3.65,9.09 -5.47,18.73 -5.47,28.92 0,10.6 1.79,20.45 5.37,29.53 3.58,9.09 8.64,16.97 15.18,23.65 6.54,6.68 14.42,11.91 23.65,15.7 9.22,3.79 19.48,5.68 30.77,5.68 6.33,0 12.39,-0.59 18.18,-1.76 5.78,-1.17 11.18,-2.79 16.21,-4.85 5.02,-2.07 9.71,-4.48 14.04,-7.23 4.34,-2.75 8.3,-5.65 11.88,-8.67z"/>
  <polygon id="24" class="fil1" points="10542.24,3282.06 10542.24,3426.64 10567.44,3426.64 10567.44,3282.06 "/>
  <polygon id="25" class="fil1" points="10729.36,3305.61 10775.22,3305.61 10775.22,3282.06 10657.9,3282.06 10657.9,3305.61 10703.75,3305.61 10703.75,3426.64 10729.36,3426.64 "/>
  <path id="26" class="fil1" d="M10938.8 3281.03l-23.55 0 -63.61 145.61 26.02 0 14.87 -34.91 68.37 0 14.66 34.91 26.85 0 -63.61 -145.61zm12.8 88.19l-49.77 0 24.78 -57.83 24.99 57.83z"/>
  <polygon id="27" class="fil1" points="11089.16,3426.64 11190.36,3426.64 11190.36,3403.71 11114.36,3403.71 11114.36,3282.06 11089.16,3282.06 "/>
  <rect class="fil2" x="5920.35" y="3052.39" width="5251.78" height="23.42"/>
  <polygon class="fil1" points="9418.3,2318.25 9418.3,2180.11 9281.47,2180.11 9281.47,2318.25 "/>
 </g>
</svg>
